<?xml version="1.0" encoding="UTF-8"?>
<svg id="Layer_1" data-name="Layer 1" xmlns="http://www.w3.org/2000/svg" viewBox="0 0 24 24">
  <defs>
    <style>
      .cls-1 {
        fill: #fff;
      }
    </style>
  </defs>
  <path class="cls-1" d="M12,15.1999998093l7.8999996185-7.9000000954c.1000003815-.1999998093.2999992371-.3000001907.5-.3000001907s.3999996185,0,.5.3000001907c.2000007629.0999999046.2999992371.3000001907.2999992371.5s0,.4000000954-.2999992371.5999999046l-8,8c-.1000003815.1000003815-.3000001907.2000007629-.3999996185.2999992371s-.3999996185.2000007629-.6000003815.2000007629-.3999996185,0-.6000003815-.2000007629-.3999996185-.2000007629-.5-.2999992371L2.7999992371,8.3999996185c-.0999999046-.1000003815-.2000000477-.3000001907-.2000000477-.5999999046s0-.4000000954.2000000477-.5999999046.4000000954-.3000001907.5999999046-.3000001907.4000000954,0,.5999999046.3000001907l7.9000005722,7.9000005722.1000003815.0999994278Z"/>
</svg>