<?xml version="1.0" encoding="UTF-8"?>
<svg xmlns="http://www.w3.org/2000/svg" viewBox="0 0 750 515.53014">
  <defs>
    <style>
      .cls-1 {
        fill: #d8de3f;
      }

      .cls-2 {
        fill: #39393a;
      }

      .cls-3 {
        fill: #272525;
      }

      .cls-4 {
        fill: #e8835b;
      }

      .cls-5 {
        fill: #a6a8aa;
      }

      .cls-6 {
        fill: #d0d1d3;
      }

      .cls-7 {
        fill: #e0d7ff;
      }

      .cls-8 {
        fill: #a5504e;
      }

      .cls-9 {
        fill: #fff;
      }

      .cls-10 {
        fill: #e8e2b1;
      }

      .cls-11 {
        fill: #ffdcc5;
      }

      .cls-12 {
        fill: #bfaf21;
      }

      .cls-13 {
        fill: #f4cab3;
      }

      .cls-14 {
        fill: #6fa9ff;
      }

      .cls-15 {
        fill: #b15553;
      }

      .cls-16 {
        fill: #ffb997;
      }

      .cls-17 {
        fill: #877426;
      }

      .cls-18 {
        fill: #edd8c8;
      }

      .cls-19 {
        fill: #e6ffa5;
      }

      .cls-20 {
        fill: #994644;
      }

      .cls-21 {
        fill: #cf735c;
      }

      .cls-22 {
        fill: #ef9778;
      }

      .cls-23 {
        fill: #ffede1;
      }

      .cls-24 {
        fill: #d5c726;
      }

      .cls-25 {
        fill: #e0806e;
      }

      .cls-26 {
        fill: #e88572;
      }

      .cls-27 {
        fill: #ed9e7e;
      }

      .cls-28 {
        fill: #5b94d8;
      }

      .cls-29 {
        fill: #8f9ecc;
      }

      .cls-30 {
        fill: #c6a724;
      }

      .cls-31 {
        fill: #892f2f;
      }

      .cls-32 {
        fill: #8a8abc;
      }

      .cls-33 {
        fill: #c9b2a7;
      }

      .cls-34 {
        fill: #b2bdea;
      }

      .cls-35 {
        fill: #c5e7ff;
      }

      .cls-36 {
        fill: #fffbd5;
      }

      .cls-37 {
        fill: #c45c55;
      }

      .cls-38 {
        fill: #ffcfbb;
      }

      .cls-39 {
        fill: #ffa77c;
      }

      .cls-40 {
        fill: #b5ad86;
      }

      .cls-41 {
        fill: #db8f72;
      }

      .cls-42 {
        fill: #9cb6ff;
      }

      .cls-43 {
        fill: #a19fd6;
      }

      .cls-44 {
        fill: #af4b3e;
      }

      .cls-45 {
        fill: #b7afff;
      }

      .cls-46 {
        fill: #7c6f67;
      }

      .cls-47 {
        fill: #ffc89f;
        opacity: .22;
      }

      .cls-48 {
        fill: #434244;
      }

      .cls-49 {
        fill: #eda588;
      }

      .cls-50 {
        fill: #948478;
      }

      .cls-51 {
        fill: #d1c999;
      }

      .cls-52 {
        fill: #9fc54d;
      }

      .cls-53 {
        fill: #ffedde;
      }

      .cls-54 {
        fill: #c8d0ff;
      }
    </style>
  </defs>
  <g id="BACKGROUND">
    <rect class="cls-38" width="750" height="500"/>
  </g>
  <g id="OBJECT">
    <g>
      <polygon class="cls-39" points="750 0 750 75.17 567.08 108.58 0 0 750 0"/>
      <g>
        <polygon class="cls-23" points="223.12 281 20 274 20 47.8 220.14 81.14 221.02 139.88 221.9 198.85 222.51 239.95 223.07 277.59 223.12 281"/>
        <polygon class="cls-23" points="396.93 110 396.93 287 243.78 281.36 243.73 281.36 233.86 281 233.87 279.56 234.17 243.01 234.48 203.44 234.95 145.86 235.45 83.67 350.5 102.43 396.93 110"/>
        <polygon class="cls-23" points="542 135 542 291.94 469.95 289.29 407.71 287 407.86 266.65 408.21 220.16 408.94 123.94 409.02 113.32 542 135"/>
        <polygon class="cls-9" points="221.9 198.85 20 125.25 20 53.68 221.02 139.88 221.9 198.85"/>
        <polygon class="cls-9" points="234.95 145.86 396.93 215.32 396.93 262.67 234.48 203.44 234.95 145.86"/>
        <polygon class="cls-9" points="542 277.53 542 291.94 469.95 289.29 407.86 266.65 408.21 220.16 542 277.53"/>
        <polygon class="cls-9" points="222.51 239.95 223.07 277.59 20 240.56 20 186.81 222.51 239.95"/>
        <polygon class="cls-9" points="396.93 285.72 396.93 287 243.78 281.36 243.73 281.36 233.87 279.56 234.17 243.01 396.93 285.72"/>
        <path class="cls-38" d="M80,53.6791v229.8472h7.3262V54.9288s-2.7668-.472-7.3262-1.2497Z"/>
        <polygon class="cls-38" points="164.3798 70.567 164.3798 283.5263 156.6899 283.5263 156.6899 67.5 164.3798 70.567"/>
        <polygon class="cls-9" points="350.5 102.43 396.93 110 396.93 119.52 350.5 102.43"/>
        <polygon class="cls-9" points="542 135 542 172.93 408.94 123.94 409.02 113.32 542 135"/>
        <path class="cls-38" d="M282.99109,75v229.8473h7.3263V76.2498s-2.7669-.472-7.3263-1.2498Z"/>
        <polygon class="cls-38" points="367.37089 91.8879 367.37089 304.8473 359.681 304.8473 359.681 88.8209 367.37089 91.8879"/>
        <path class="cls-38" d="M444.68989,111.7604v187.9533h5.9909V112.7824s-2.2626-.386-5.9909-1.022Z"/>
        <polygon class="cls-38" points="513.68989 125.5702 513.68989 299.7137 507.40159 299.7137 507.40159 123.0622 513.68989 125.5702"/>
      </g>
      <path class="cls-41" d="M129.75.25s248.25,54.3285,391.25,54.0392c143-.2892,229-18.2515,229-18.2515v39.132l-182.91921,33.4087L0,0l129.75.25Z"/>
      <polygon class="cls-16" points="567.08079 108.5784 567.08079 370.0844 750 388 750 75.1697 567.08079 108.5784"/>
      <path class="cls-49" d="M567.08079,121.3056s82.2525-9.8851,182.91921,36.238v-82.3739l-182.91921,33.4087v12.7272Z"/>
      <polygon class="cls-53" points="750 388 750 500 0 500 0 394.08 567.08 370.08 750 388"/>
      <polygon class="cls-22" points="567.08079 351.6667 750 360.1197 750 388 566.19859 370.0844 567.08079 351.6667"/>
      <path class="cls-18" d="M750,405.45l-128.51,31.23-80.78-14.12,115.64-28.1-.7-2.92-122.33,29.73-89.71-15.68,103.41-25.13-.71-2.92-110.09,26.75-27.3-4.77-.51,2.96,20.52,3.58-126.53,30.75-18.81-3.29-.51,2.96,12.03,2.1-96.8,23.52-56.72-9.91-.51,2.95,49.94,8.73-80.06,19.46-71.37-12.47-.51,2.95,64.59,11.29-61.33,14.9h12.72l56-13.61,77.87,13.61h17.41l-87.99-15.38,80.06-19.45,89.71,15.68-78.83,19.15h12.7l73.52-17.86,80.78,14.12-15.4,3.74h12.71l10.08-2.45,14.02,2.45h17.42l-24.15-4.22,96.8-23.52,92.93,16.24-47.33,11.5h12.7l42.03-10.21,58.4,10.21h17.4l-68.52-11.98,126.53-30.75,28.09,4.91v-3.04l-20.8-3.64,20.8-5.05v-3.09l-28.19,6.85-92.93-16.24,121.12-29.43v-3.09ZM436.32,407.36l89.71,15.68-126.53,30.74-89.71-15.68,126.53-30.74ZM295.41,479.08l-89.71-15.68,96.8-23.53,89.71,15.68-96.8,23.53ZM383.58,494.49l-80.78-14.12,96.81-23.52,80.77,14.11-96.8,23.53ZM487.67,469.19l-80.78-14.12,126.53-30.74,80.78,14.12-126.53,30.74ZM714.52,455.98l-126.53,30.75-92.93-16.24,126.53-30.75,92.93,16.24Z"/>
      <path class="cls-18" d="M0,500s26.3898-23.373,272.73649-68.3947c246.34669-45.0217,477.26351-12.5471,477.26351-12.5471v-31.0582l-183.80141-17.9156L0,394.0832v105.9168Z"/>
      <polygon class="cls-53" points="0 17 567.08079 121.3056 567.08079 108.5784 0 0 0 17"/>
      <polygon class="cls-39" points="0 296.5881 567.08079 302.5878 567.08079 370.0844 0 394.0832 0 296.5881"/>
      <polygon class="cls-4" points="0 373.9032 567.08079 351.6667 566.19859 370.0844 0 394.0832 0 373.9032"/>
      <ellipse class="cls-53" cx="549" cy="79.4182" rx="20" ry="4.2485"/>
      <ellipse class="cls-53" cx="437" cy="54.2892" rx="20" ry="4.2485"/>
      <ellipse class="cls-53" cx="303.54039" cy="31.7892" rx="20" ry="4.2485"/>
      <path class="cls-53" d="M723.856,48.7263c0,2.3463-8.95432,4.2484-20,4.2484s-20-1.9021-20-4.2484,8.95428-4.2485,20-4.2485,20,1.9021,20,4.2485Z"/>
      <ellipse class="cls-53" cx="591.856" cy="23.5973" rx="20" ry="4.2485"/>
      <path class="cls-53" d="M478.4,1.09998c0,2.34002-8.96,4.25-20,4.25-11.05,0-20-1.90998-20-4.25,0-.38001.23-.75.67-1.09998h38.66c.44.34998.67.71997.67,1.09998Z"/>
      <path class="cls-53" d="M750,1.27997v5.5c-3.66.92004-9.14,1.5-15.27,1.5-11.05,0-20-1.89997-20-4.25,0-1.88001,5.71-3.46997,13.65-4.02997h12.7c3.51.25,6.59.70001,8.92,1.27997Z"/>
    </g>
    <g>
      <path class="cls-49" d="M644.15158,123.1537l1.09842,50.7714-47.41242,4.7909-1.83058-1.6997s41.63168-56.753,48.14458-53.8626Z"/>
      <polygon class="cls-20" points="592.60769 120.7445 592.60769 177.3331 642.321 172.6989 642.321 113.3191 592.60769 120.7445"/>
      <polygon class="cls-37" points="596.007 123.1537 596.007 173.9251 638.11068 169.6509 638.11068 117.4789 596.007 123.1537"/>
      <polygon class="cls-8" points="608.08888 130.293 608.08888 158.8503 622.73368 157.5689 626.39488 128.0963 608.08888 130.293"/>
      <polygon class="cls-47" points="596.19 125.5335 638.11068 140.7274 638.11068 150.2465 595.64078 134.6865 596.19 125.5335"/>
      <polygon class="cls-47" points="595.82388 149.3312 638.29368 160.6809 638.29368 165.1964 595.70188 155.1891 595.82388 149.3312"/>
    </g>
    <g>
      <path class="cls-18" d="M604.96188,221.2834l-.21188,12.7166,57.75-5.5v-15.75l-55.22972,6.0032c-1.2972.141-2.2866,1.2255-2.3084,2.5302Z"/>
      <polygon class="cls-49" points="662.375 212.8125 691.5 215.6667 691.66668 225.5 662.5 228.5 662.375 212.8125"/>
      <path class="cls-49" d="M617.83328,225.5s-.33328-2.5833,4.16672-3.5,13-1.5,15-.5,1.91668,2.9167-.08332,2.8333c-2-.0833-1.5834-1.5-5.8334-1.5s-8,.75-9.08328,1.25c-1.08332.5-3.41672,2.9167-4.16672,1.4167Z"/>
      <g>
        <path class="cls-52" d="M689.91028,205.2127s-6.9099-5.2703-4.5676-5.8558c2.3424-.5856,5.1532,1.8738,3.982,0-1.1712-1.8739-6.2758-4.0991-4.89468-5.1532,1.38118-1.054,3.95778-.1171,6.06588,1.0541,2.10812,1.1711-2.3424-3.0451-2.4595-5.8559s5.3874.4685,6.7928,2.2253c1.4054,1.7567-3.0451-9.3694,1.6396-9.2523,4.6847.1172.9369,9.4865,4.4504,10.0721s5.8559-5.036,6.9099-1.991c1.0541,3.045-3.8648,6.5585-2.5765,7.3783,1.2882.8199,5.7777-3.1621,6.1681-.4684s-5.1141,5.2252-3.8258,5.4234,5.07512-2.3063,3.8258,0c-1.2492,2.3063-16.0059,10.7387-21.5104,2.4234Z"/>
        <path class="cls-23" d="M713.25,204.83c-.33,13.17-5.5,24.84-18.16,21.67-3.98-.99-6.49-3.56-8.07-6.62-3.45-6.69-2.43-15.71-2.43-15.71,12.47-2.06,20.85-1.16,25.18-.28,2.32.47,3.48.94,3.48.94Z"/>
        <path class="cls-6" d="M713.25,204.83c-.33,13.17-5.5,24.84-18.16,21.67-3.98-.99-6.49-3.56-8.07-6.62,2.96.37,6.91.52,11.65-.13,8.53-1.16,10.6-11.35,11.1-15.86,2.32.47,3.48.94,3.48.94Z"/>
      </g>
      <polygon class="cls-21" points="590.78269 235.0431 706.31978 223.6984 703.61538 408.4975 589.96359 389.9945 590.78269 235.0431"/>
      <polygon class="cls-44" points="706.31978 223.6984 736.32878 232.112 736.32878 398.7626 703.61538 408.4975 706.31978 223.6984"/>
      <polygon class="cls-23" points="646.66668 237.8213 645.66668 337.2727 697.45538 341.7895 698.5 233 646.66668 237.8213"/>
      <polygon class="cls-23" points="638.56008 237.8213 636.21308 337.2727 596.09968 333.9967 596.86528 241.359 638.56008 237.8213"/>
      <polygon class="cls-23" points="711.73738 233.7538 710.487 340.5435 731.52108 337.5007 731.52108 238.1591 711.73738 233.7538"/>
      <polygon class="cls-11" points="613.625 239.937 612.83328 328.8333 596.09968 333.9967 596.86528 241.359 613.625 239.937"/>
      <polygon class="cls-44" points="644.25 345.25 645.25 390 695.5 396.75 694 349.5 644.25 345.25"/>
      <polygon class="cls-44" points="597.25 340.5435 635.75 344.25 635.75 388 597.25 381.25 597.25 340.5435"/>
      <rect class="cls-54" x="597.38978" y="262.8125" width="4.875" height="22.3285"/>
      <polygon class="cls-42" points="602.26478 262.8125 611.34978 264.0586 610.85228 285.141 602.26478 285.141 602.26478 262.8125"/>
      <rect class="cls-54" x="604.36978" y="262.4375" width="4.875" height="22.7035"/>
      <polygon class="cls-42" points="609.24478 262.4375 618.32988 263.7045 617.83238 285.141 609.24478 285.141 609.24478 262.4375"/>
      <rect class="cls-54" x="613.625" y="262" width="4.875" height="23.141"/>
      <polygon class="cls-16" points="646.66668 237.8213 664 240.75 664 333 645.66668 337.2727 646.66668 237.8213"/>
      <polygon class="cls-42" points="618.5 262 627.58508 263.2915 627.08758 285.141 618.5 285.141 618.5 262"/>
      <rect class="cls-54" x="624" y="262" width="4.875" height="23.141"/>
      <polygon class="cls-42" points="628.875 262 637.96008 263.2915 637.46258 285.141 628.875 285.141 628.875 262"/>
      <polygon class="cls-26" points="596.09968 287.547 637.38658 287.547 637.46258 284.3285 596.51018 284.3285 596.09968 287.547"/>
      <polygon class="cls-26" points="645.66668 284.3285 698.00708 284.3285 697.97618 287.547 646.16668 287.547 645.66668 284.3285"/>
      <rect class="cls-26" x="711.14518" y="284.3285" width="20.3759" height="2.8202"/>
      <polygon class="cls-13" points="612.83328 328.8333 636.373 330.497 636.21308 337.2727 596.09968 333.9967 612.83328 328.8333"/>
      <polygon class="cls-13" points="664.125 332.625 697.52058 335.0018 697.45538 341.7895 645.66668 337.2727 664.125 332.625"/>
      <polygon class="cls-13" points="710.53828 336.1632 731.52108 337.5007 710.487 340.5435 710.53828 336.1632"/>
      <polygon class="cls-54" points="650.75 304.6667 650.68748 335.3125 658.15678 336.391 658.18748 305.25 650.75 304.6667"/>
      <polygon class="cls-42" points="658.18748 305.375 672.16668 304.25 671.68748 335.25 658.15678 336.391 658.18748 305.375"/>
      <polygon class="cls-38" points="651 304.625 668.25 303.1719 672.16668 304.25 658.18748 305.375 651 304.625"/>
      <path class="cls-33" d="M660.16668,248.1667s-1.8359,1.0833-1.6263,2.75c.20962,1.6666,1.6263,2.5833,1.6263,2.5833,0,0-1.0834.9167-2.5834,2.9167s2.5834,18.3333,2.5834,18.3333c0,0-1.9122.9167-2.9144,2.5833-1.00228,1.6667-.419,6.9952-.419,6.9952h11.8334s.75-5.8285,0-7.2452c-.75-1.4166-4-2.3333-4-2.3333,0,0,1.75-16.5833.9166-18.5833-.83328-2-2.4166-2.5834-2.4166-2.5834,0,0,1.83332-2.25,1.25-4-.5834-1.75-3.3249-2.2059-4.25-1.4166Z"/>
      <polygon class="cls-54" points="662.5 306.2917 662.43748 336.9375 669.90678 338.016 669.93748 306.875 662.5 306.2917"/>
      <polygon class="cls-42" points="669.93748 307 683.91668 305.875 683.43748 336.875 669.90678 338.016 669.93748 307"/>
      <polygon class="cls-38" points="662.75 306.25 679.43748 305.0781 683.91668 305.875 669.93748 307 662.75 306.25"/>
      <ellipse class="cls-33" cx="684.47916" cy="263.3125" rx="12.39588" ry="14.0625"/>
      <path class="cls-33" d="M679.5,275.125l-2.625,9.2035h2.625s1-4.4535,4.25-5.3285,7.125,5.3285,7.125,5.3285h3.375l-5.625-9.2035h-9.125Z"/>
      <polygon class="cls-27" points="664 240.75 698.33328 237.75 698.5 233 646.66668 237.8213 664 240.75"/>
      <polygon class="cls-27" points="711.66668 237.8333 731.52108 238.1591 711.73738 233.7538 711.66668 237.8333"/>
      <polygon class="cls-54" points="676.5 306.6667 676.43748 337.3125 683.90678 338.391 683.93748 307.25 676.5 306.6667"/>
      <polygon class="cls-42" points="683.93748 307.375 697.91668 306.25 697.43748 337.25 683.90678 338.391 683.93748 307.375"/>
      <polygon class="cls-16" points="596.86528 241.359 613.66668 244 638.66668 241.8333 638.56008 237.8213 596.86528 241.359"/>
      <polygon class="cls-38" points="676.53128 306.6719 697.875 304.8125 697.91668 306.25 683.93748 307.375 676.53128 306.6719"/>
      <g>
        <polygon class="cls-45" points="605.125 312.5388 605.125 332.4617 615.79168 334.1667 615.45828 312.75 605.125 312.5388"/>
        <polygon class="cls-43" points="615.41668 312.75 624.73218 295.5 629.47418 295.5 628.49078 331.5011 615.41668 334.1667 615.41668 312.75"/>
        <polygon class="cls-32" points="605 312.6222 616.48438 295.5 624.73218 295.5 613.66668 312.7292 605 312.6222"/>
        <polygon class="cls-9" points="605.87 315.9283 605.87 330.6695 612.33738 332.1456 612.06458 316.3599 605.87 315.9283"/>
        <polygon class="cls-40" points="605.79168 312.5833 605.67178 298.5475 617.08778 298.5475 607.45828 312.625 605.79168 312.5833"/>
        <polygon class="cls-51" points="607.43748 312.6458 607.18568 298.2203 618.60158 298.2203 610.125 312.6667 607.43748 312.6458"/>
        <polygon class="cls-10" points="610.125 312.6667 609.13448 297.6251 620.55048 297.6251 613.22918 312.7083 610.125 312.6667"/>
        <polygon class="cls-36" points="612.97918 312.7292 611.77938 296.6852 623.87058 296.8931 615.47918 312.8125 612.97918 312.7292"/>
        <path class="cls-7" d="M609.98888,319.1202c.1629.8494-.25588,1.6437-.9354,1.774-.6796.1303-1.36248-.4526-1.5254-1.3021-.1629-.8494.25592-1.6436.9355-1.774.6795-.1303,1.36242.4527,1.5253,1.3021Z"/>
      </g>
    </g>
    <polygon class="cls-50" points="346.63759 424.5826 352.66669 500 375 500 380.20679 443.4264 491.43589 417.7226 485 500 503 500 521.002 398.9398 346.63759 424.5826"/>
    <polygon class="cls-31" points="375 418.1299 375 431.8222 538 395.1115 538 384.3333 375 418.1299"/>
    <polygon class="cls-46" points="356.66669 445.3443 88.4556 369.5991 88.4556 359.2421 350.66669 423.4974 356.66669 445.3443"/>
    <polygon class="cls-20" points="79.2303 350.2587 79.7345 356.4547 375 431.8222 375 418.1299 79.2303 350.2587"/>
    <g>
      <polygon class="cls-21" points="190.4873 325.4132 566.19859 370.0844 383.75359 407.1694 48.2575 331.2417 190.4873 325.4132"/>
      <polygon class="cls-37" points="48.2575 331.2417 48.2575 343.1513 383.75359 420.1386 383.75359 407.1694 48.2575 331.2417"/>
      <polygon class="cls-44" points="566.19859 370.0844 565.31639 382 382.87139 420.1386 382.87139 407.1694 566.19859 370.0844"/>
      <path class="cls-25" d="M56.8919,334.1738s81.1081-3.3207,140.1081-.4855c47.58979,2.2869,351.5,40.3117,351.5,40.3117l17.69859-3.9156-378.35989-45.2263-139.5812,6.3836,8.6344,2.9321Z"/>
    </g>
    <polygon class="cls-46" points="90 363.6667 97.5164 436.8097 107.8634 437.961 101.3617 369.5991 90 363.6667"/>
    <polygon class="cls-9" points="195.62 346.93165 268.12 360.27435 247.12 372.64635 178.12 356.78035 195.62 346.93165"/>
    <g>
      <g>
        <rect class="cls-48" x="150.67141" y="424.33594" width="12.49729" height="50.0446"/>
        <path class="cls-3" d="M144.6916,429.17944s3.4269,7.7216,4.3469,14.8229l16.4156.2221s1.4031-9.3951,4.8416-12.7194l-25.6041-2.3256Z"/>
        <path class="cls-31" d="M147.348,422.08684s21.3721,1.6301,43.1065-2.5356c21.7343-4.1658,16.66291-12.6784,9.05591-15.5763s-16.30071-4.528-31.51481-5.6147c-15.214-1.0867-27.5301,0-29.16019,2.8979-1.63011,2.8979,8.51259,20.8287,8.51259,20.8287Z"/>
        <path class="cls-20" d="M147.89141,419.91344s29.13959,1.54,43.28749-2.7168c14.148-4.2568,14.5432-8.1079,14.5432-8.1079,0,0,12.0814,17.345-22.3313,21.6919-34.4127,4.3468-42.3342,2.6173-42.3342,2.6173l6.83481-13.4845Z"/>
        <path class="cls-31" d="M150.7531,429.17944c-.623.9998-1.5069,1.8547-2.6806,2.5068-5.7958,3.2601-29.7036,3.2601-40.5708-6.1581-10.8671-9.4182-9.4182-28.6169-13.0406-48.9023-3.6223-20.2853-15.214-38.7595-19.1986-54.3358s-4.8685-27.5737,0-34.7749c1.5359-2.2894,3.434-4.4483,7.7809-5.8973,4.3468-1.4489,21.5604-.2608,29.6311,2.6371,1.7822.6376,3.0139,1.5504,3.8398,2.8255,2.9124,4.4627,1.0143,13.3159,1.8546,30.5005,1.0867,22.0966,16.663,45.2799,21.0099,55.4226,4.3468,10.1426.3622,32.2392,6.8825,39.8462,5.2018,6.0712,6.9406,12.3741,4.4918,16.3297Z"/>
        <path class="cls-15" d="M150.7531,429.17944c-18.8075-.3187-15.96269-31.0607-19.1021-47.603-2.3793-12.5371-23.787-56.7507-24.8737-81.383-.6665-14.9967,5.1148-15.2285,9.737-13.113,2.9124,4.4627,1.0143,13.3159,1.8546,30.5005,1.0867,22.0966,16.663,45.2799,21.0099,55.4226,4.3468,10.1426.3622,32.2392,6.8825,39.8462,5.2018,6.0712,6.9406,12.3741,4.4918,16.3297Z"/>
        <path class="cls-3" d="M141.9335,433.30034s6.139-35.6646,5.4145-42.366-2.5958-10.8672,4.4979-13.9462c7.0938-3.079,37.3407-2.7168,45.1289.9056,7.7881,3.6224,6.8825,8.5126,4.1657,11.9539,0,0,1.989,32.2397-2.0845,36.9486-4.07359,4.7088-6.0659,2.3832-6.0659,2.3832,0,0,4.1658-34.6227-2.5356-38.6074-6.7015-3.9846-30.9715-1.2678-32.0582-.7244-1.0867.5433-3.079,33.5649-5.6147,39.3318s-8.6556,6.0972-10.8481,4.1209Z"/>
        <rect class="cls-3" x="149.4036" y="453.37064" width="15.3951" height="32.2207"/>
      </g>
      <polygon class="cls-3" points="124.7757 485.59134 150.67141 478.92464 164.7987 478.92464 190.7757 485.59134 124.7757 485.59134"/>
    </g>
    <path class="cls-23" d="M278.57181,362.09221c-4.91551,1.3794-16.73771,7.425-15.62191,13.153,1.11591,5.728,26.11091,1.0414,31.6901-2.7524,5.5793-3.7939-1.7668-14.4138-16.06819-10.4006Z"/>
    <g>
      <path class="cls-1" d="M157.467,327.54113s-6.5-18.1209-.8334-20.7875c5.66671-2.6667,8.16671,8.3992,8.16671,8.3992,0,0,3.33329-4.0659,6.66669-2.3992,3.33331,1.6666-3.8334,9.5235-3.8334,9.5235v5.264h-10.1666Z"/>
      <path class="cls-23" d="M151.2038,325.92023l3.09651,16.1667s6.33329,2.3167,18.33329.7417l2.5-18.2417-23.9298,1.3333Z"/>
    </g>
    <polygon class="cls-46" points="491.43589 417.7226 508 414.5 491.43589 500 485 500 491.43589 417.7226"/>
    <polygon class="cls-46" points="367.37089 429.8749 363.526 500 352.66669 500 346.63759 424.5826 367.37089 429.8749"/>
    <g>
      <g>
        <polygon class="cls-5" points="220.62548 320.89681 333.89338 332.55301 333.89338 257.23471 220.62548 258.56151 220.62548 320.89681"/>
        <polygon class="cls-3" points="327.47659 263.99271 327.47659 326.22271 225.43659 316.94271 225.43659 263.99271 327.47659 263.99271"/>
        <path class="cls-6" d="M260.91468,325.04291s7.9405,10.9732,6.2511,24.8255l29.225,5.5747s2.5039-14.742-4.57619-27.2203l-30.89991-3.1799Z"/>
      </g>
      <path class="cls-2" d="M327.47659,263.99271v62.23c-28.22-47.97-102.04-62.23-102.04-62.23h102.04Z"/>
    </g>
    <g>
      <polygon class="cls-24" points="334.22345 344.46845 334.22345 392.17485 355.22345 397.04895 355.22345 345.90865 334.22345 344.46845"/>
      <polygon class="cls-12" points="355.22345 345.90865 381.47345 303.46845 392.82845 303.46845 390.47345 389.67515 355.22345 397.04895 355.22345 345.90865"/>
      <polygon class="cls-17" points="334.22345 344.46845 361.72345 303.46845 381.47345 303.46845 355.22345 345.90865 334.22345 344.46845"/>
      <polygon class="cls-19" points="336.30673 352.38515 336.30673 387.68395 351.79323 391.21845 351.14013 353.41875 336.30673 352.38515"/>
      <polygon class="cls-40" points="336.16093 344.68725 335.83213 310.76595 363.16833 310.76595 339.75473 344.87475 336.16093 344.68725"/>
      <polygon class="cls-51" points="339.75473 344.87475 339.45713 309.98245 366.79333 309.98245 344.72345 345.18855 339.75473 344.87475"/>
      <polygon class="cls-10" points="344.72345 345.18855 344.12383 308.55715 371.46003 308.55715 350.45713 345.55315 344.72345 345.18855"/>
      <polygon class="cls-36" points="350.45713 345.55315 350.45713 306.30655 379.41013 306.80435 355.23203 345.90865 350.45713 345.55315"/>
      <path class="cls-30" d="M346.16973,360.02845c.3901,2.034-.6128,3.9358-2.24,4.2479-1.6272.312-3.2625-1.0839-3.6526-3.1179s.6128-3.9358,2.24-4.2479c1.6272-.312,3.2625,1.0839,3.6526,3.1179Z"/>
    </g>
    <g>
      <polygon class="cls-34" points="367.37089 376.14635 382.62089 377.83385 382.45418 400.39635 367.45418 399.39635 367.37089 376.14635"/>
      <polygon class="cls-54" points="382.62089 377.83385 431.27089 372.39635 431.27089 390.89635 382.45418 400.39635 382.62089 377.83385"/>
      <polygon class="cls-29" points="367.37089 376.14635 415.28158 371.49785 431.27089 372.39635 382.62089 377.83385 367.37089 376.14635"/>
      <polygon class="cls-28" points="372.12089 346.77135 372.12089 376.67195 379.38868 377.47615 378.77958 347.89635 372.12089 346.77135"/>
      <polygon class="cls-14" points="400.24589 345.77135 401.27138 375.74935 382.62089 377.83385 379.38868 377.47615 378.77958 347.89635 400.24589 345.77135"/>
      <polygon class="cls-35" points="382.62089 353.78395 397.99589 352.05265 397.99589 358.27135 382.62089 360.52135 382.62089 353.78395"/>
      <polygon class="cls-35" points="372.12089 346.77135 391.12089 344.89635 400.24589 345.77135 378.77958 347.89635 372.12089 346.77135"/>
      <polygon class="cls-34" points="385.62089 383.18765 428.95418 377.47615 428.95418 378.97965 385.62089 385.06305 385.62089 383.18765"/>
    </g>
  </g>
</svg>