<?xml version="1.0" encoding="UTF-8"?>
<svg id="Layer_1" xmlns="http://www.w3.org/2000/svg" version="1.1" viewBox="0 0 24 24">
  <!-- Generator: Adobe Illustrator 29.3.1, SVG Export Plug-In . SVG Version: 2.1.0 Build 151)  -->
  <defs>
    <style>
      .st0 {
        fill: #e3e3e3;
      }
    </style>
  </defs>
  <path class="st0" d="M12,15.2l7.9-7.9c.1-.2.3-.3.5-.3s.4,0,.5.3c.2.1.3.3.3.5s0,.4-.3.6l-8,8c-.1.1-.3.2-.4.3s-.4.2-.6.2-.4,0-.6-.2-.4-.2-.5-.3l-8-8c-.1-.1-.2-.3-.2-.6s0-.4.2-.6c.2-.2.4-.3.6-.3s.4,0,.6.3l7.9,7.9Z"/>
</svg>