<?xml version="1.0" encoding="UTF-8"?>
<svg id="Layer_1" xmlns="http://www.w3.org/2000/svg" version="1.1" viewBox="0 0 750 515.5">
  <!-- Generator: Adobe Illustrator 29.3.1, SVG Export Plug-In . SVG Version: 2.1.0 Build 151)  -->
  <defs>
    <style>
      .st0 {
        fill: #c45c55;
      }

      .st1 {
        fill: #434244;
      }

      .st2 {
        fill: #272525;
      }

      .st3 {
        fill: #ffdcc5;
      }

      .st4 {
        fill: #eda588;
      }

      .st5 {
        fill: #f4cab3;
      }

      .st6 {
        fill: #d0d1d3;
      }

      .st7 {
        fill: #a5504e;
      }

      .st8 {
        fill: #b7afff;
      }

      .st9 {
        fill: #ffb997;
      }

      .st10 {
        fill: #a6a8aa;
      }

      .st11 {
        fill: #9fc54d;
      }

      .st12 {
        fill: #fff;
      }

      .st13 {
        fill: #b5ad86;
      }

      .st14 {
        fill: #ffc89f;
        isolation: isolate;
        opacity: .2;
      }

      .st15 {
        fill: #e6ffa5;
      }

      .st16 {
        fill: #a19fd6;
      }

      .st17 {
        fill: #948478;
      }

      .st18 {
        fill: #e8e2b1;
      }

      .st19 {
        fill: #b15553;
      }

      .st20 {
        fill: #c6a724;
      }

      .st21 {
        fill: #bfaf21;
      }

      .st22 {
        fill: #fffbd5;
      }

      .st23 {
        fill: #8a8abc;
      }

      .st24 {
        fill: #6fa9ff;
      }

      .st25 {
        fill: #9cb6ff;
      }

      .st26 {
        fill: #39393a;
      }

      .st27 {
        fill: #b2bdea;
      }

      .st28 {
        fill: #e88572;
      }

      .st29 {
        fill: #877426;
      }

      .st30 {
        fill: #ed9e7e;
      }

      .st31 {
        fill: #7c6f67;
      }

      .st32 {
        fill: #ffcfbb;
      }

      .st33 {
        fill: #c5e7ff;
      }

      .st34 {
        fill: #c9b2a7;
      }

      .st35 {
        fill: #994644;
      }

      .st36 {
        fill: #edd8c8;
      }

      .st37 {
        fill: #ffa77c;
      }

      .st38 {
        fill: #af4b3e;
      }

      .st39 {
        fill: #e0d7ff;
      }

      .st40 {
        fill: #d8de3f;
      }

      .st41 {
        fill: #ef9778;
      }

      .st42 {
        fill: #cf735c;
      }

      .st43 {
        fill: #ffede1;
      }

      .st44 {
        fill: #8f9ecc;
      }

      .st45 {
        fill: #892f2f;
      }

      .st46 {
        fill: #5b94d8;
      }

      .st47 {
        fill: #e8835b;
      }

      .st48 {
        fill: #d1c999;
      }

      .st49 {
        fill: #ffedde;
      }

      .st50 {
        fill: #c8d0ff;
      }

      .st51 {
        fill: #e0806e;
      }

      .st52 {
        fill: #d5c726;
      }
    </style>
  </defs>
  <g id="BACKGROUND">
    <rect class="st32" x="-.7" y="-152.2" width="706.5" height="471"/>
  </g>
  <g id="OBJECT-2">
    <g>
      <g>
        <polygon class="st43" points="204.3 131.2 -12.4 123.8 -12.4 -117.5 201.1 -82 202 -19.3 203 43.6 203.6 87.4 204.2 127.6 204.3 131.2"/>
        <polygon class="st43" points="389.7 -51.2 389.7 137.6 226.3 131.6 226.3 131.6 215.7 131.2 215.7 129.7 216.1 90.7 216.4 48.5 216.9 -12.9 217.4 -79.3 340.1 -59.3 389.7 -51.2"/>
        <polygon class="st43" points="544.4 -24.5 544.4 142.9 467.6 140.1 401.2 137.6 401.3 115.9 401.7 66.3 402.5 -36.3 402.6 -47.7 544.4 -24.5"/>
        <polygon class="st12" points="203 43.6 -12.4 -34.9 -12.4 -111.3 202 -19.3 203 43.6"/>
        <polygon class="st12" points="216.9 -12.9 389.7 61.2 389.7 111.7 216.4 48.5 216.9 -12.9"/>
        <polygon class="st12" points="544.4 127.5 544.4 142.9 467.6 140.1 401.3 115.9 401.7 66.3 544.4 127.5"/>
        <polygon class="st12" points="203.6 87.4 204.2 127.6 -12.4 88.1 -12.4 30.7 203.6 87.4"/>
        <polygon class="st12" points="389.7 136.3 389.7 137.6 226.3 131.6 226.3 131.6 215.7 129.7 216.1 90.7 389.7 136.3"/>
        <path class="st32" d="M51.6-111.3v245.2h7.8V-109.9s-3-.5-7.8-1.3Z"/>
        <polygon class="st32" points="141.6 -93.3 141.6 133.9 133.4 133.9 133.4 -96.5 141.6 -93.3"/>
        <polygon class="st12" points="544.4 -24.5 544.4 15.9 402.5 -36.3 402.6 -47.7 544.4 -24.5"/>
        <path class="st32" d="M268.1-88.5v245.2h7.8V-87.2s-3-.5-7.8-1.3Z"/>
        <polygon class="st32" points="358.1 -70.5 358.1 156.7 349.9 156.7 349.9 -73.8 358.1 -70.5"/>
        <path class="st32" d="M440.6-49.3v200.5h6.4V-48.2s-2.4-.4-6.4-1.1Z"/>
        <polygon class="st32" points="514.2 -34.6 514.2 151.2 507.5 151.2 507.5 -37.3 514.2 -34.6"/>
      </g>
      <polygon class="st9" points="571.2 -52.7 571.2 226.3 766.3 245.4 766.3 -88.4 571.2 -52.7"/>
      <polygon class="st49" points="1107.7 265.9 1107.7 513.8 -375.2 513.8 -375.2 279.4 746.1 226.3 1107.7 265.9"/>
      <polygon class="st41" points="571.2 206.6 766.3 215.6 766.3 245.4 570.3 226.3 571.2 206.6"/>
      <rect class="st36" x="745.3" y="284.4" width="4" height="51.1" transform="translate(270.4 963.5) rotate(-76.4)"/>
      <rect class="st36" x="686.9" y="244.2" width="4" height="201.6" transform="translate(191.6 933.5) rotate(-76.4)"/>
      <rect class="st36" x="608.2" y="210.4" width="4" height="348.1" transform="translate(93.1 887.2) rotate(-76.4)"/>
      <rect class="st36" x="433.1" y="73.9" width="4" height="687.5" transform="translate(-73.3 742.2) rotate(-76.4)"/>
      <rect class="st36" x="328.9" y="136.2" width="4" height="687.5" transform="translate(-213.5 688.5) rotate(-76.4)"/>
      <rect class="st36" x="206.7" y="201.2" width="4" height="687.5" transform="translate(-370.1 619.5) rotate(-76.4)"/>
      <rect class="st36" x="-9.2" y="427.3" width="157.3" height="4" transform="translate(-108.7 32.6) rotate(-15)"/>
      <rect class="st36" x="-19.7" y="410.4" width="813.3" height="4" transform="translate(-93.5 114.2) rotate(-15)"/>
      <rect class="st36" x="106.3" y="454.1" width="813.3" height="4" transform="translate(-100.6 148.3) rotate(-15)"/>
      <rect class="st36" x="250.1" y="529.5" width="813.3" height="4" transform="translate(-115.2 188.1) rotate(-15)"/>
      <rect class="st36" x="-132.9" y="404.3" width="157.3" height="4" transform="translate(-107 -.2) rotate(-15)"/>
      <path class="st36" d="M-86.2,365.9l147.6-36.7,91.2,22.1-132.9,33,.7,3.9,140.5-34.9,101.3,24.5-118.8,29.5.7,3.9,126.5-31.4,30.8,7.5.7-3.9-23.2-5.6,145.4-36.1,21.2,5.2.7-3.9-13.6-3.3,111.2-27.6,64.1,15.5.7-3.9-56.4-13.7,92-22.9,80.6,19.5.7-3.9-72.9-17.7,70.5-17.5-14.5-.5-64.3,16-87.9-21.3-19.8-.7,99.4,24.1-92,22.9-101.3-24.5,90.6-22.5-14.4-.5-84.5,21-91.2-22.1,17.7-4.4-14.5-.5-11.6,2.9-15.8-3.8-19.8-.7,27.3,6.6-111.2,27.6-105-25.4,54.4-13.5-14.4-.5-48.3,12-66-16-19.8-.7,77.4,18.8-145.4,36.1-31.7-7.7v4.1c-.1,0,23.3,5.7,23.3,5.7l-23.9,5.9v4.1c-.1,0,32.2-8,32.2-8l105,25.4-139.2,34.6v4.1q-.1,0-.1,0h0ZM270.7,375.8l-101.3-24.5,145.4-36.1,101.3,24.5-145.4,36.1h0ZM434.4,285.4l101.3,24.5-111.2,27.6-101.3-24.5,111.2-27.6h0ZM334.8,261.3l91.2,22.1-111.2,27.6-91.2-22.1,111.2-27.6h0ZM215.2,291l91.2,22.1-145.4,36.1-91.2-22.1,145.4-36.1h0,0ZM-43.5,299.7l145.4-36.1,105,25.4-145.4,36.1-105-25.4s0,0,0,0Z"/>
      <path class="st36" d="M-33.8,364.8s28.2-24.9,290.9-73c262.8-48,509.1-13.4,509.1-13.4v-33.1l-196.1-19.1L-33.8,251.9v113Z"/>
      <polygon class="st37" points="-33.8 147.9 571.2 154.3 571.2 226.3 -33.8 251.9 -33.8 147.9"/>
      <polygon class="st47" points="-33.8 230.3 571.2 206.6 570.3 226.3 -33.8 251.9 -33.8 230.3"/>
    </g>
    <g>
      <path class="st4" d="M653.4-37.2l1.2,54.2-50.6,5.1-2-1.8s44.4-60.5,51.4-57.5h0Z"/>
      <polygon class="st35" points="598.4 -39.7 598.4 20.6 651.5 15.7 651.5 -47.7 598.4 -39.7"/>
      <polygon class="st0" points="602 -37.2 602 17 647 12.4 647 -43.2 602 -37.2"/>
      <polygon class="st7" points="614.9 -29.5 614.9 .9 630.6 -.5 634.5 -31.9 614.9 -29.5"/>
      <polygon class="st14" points="601.9 -9.2 647.2 2.9 647.2 7.7 601.7 -3 601.9 -9.2"/>
    </g>
    <g>
      <path class="st36" d="M611.6,67.5l-.2,13.6,61.6-5.9v-16.8l-58.9,6.4c-1.4.2-2.4,1.3-2.5,2.7Z"/>
      <polygon class="st4" points="672.8 58.5 703.9 61.5 704.1 72 673 75.2 672.8 58.5"/>
      <path class="st4" d="M625.3,72s-.4-2.8,4.4-3.7,13.9-1.6,16-.5,2,3.1,0,3c-2.1,0-1.7-1.6-6.2-1.6s-8.5.8-9.7,1.3c-1.2.5-3.6,3.1-4.4,1.5h0Z"/>
      <g>
        <path class="st11" d="M702.2,50.4s-7.4-5.6-4.9-6.2c2.5-.6,5.5,2,4.2,0-1.2-2-6.7-4.4-5.2-5.5,1.5-1.1,4.2-.1,6.5,1.1,2.2,1.2-2.5-3.2-2.6-6.2s5.7.5,7.2,2.4c1.5,1.9-3.2-10,1.7-9.9,5,.1,1,10.1,4.7,10.7s6.2-5.4,7.4-2.1c1.1,3.2-4.1,7-2.7,7.9,1.4.9,6.2-3.4,6.6-.5s-5.5,5.6-4.1,5.8,5.4-2.5,4.1,0c-1.3,2.5-17.1,11.5-22.9,2.6h0Z"/>
        <path class="st43" d="M727.1,50c-.4,14-5.9,26.5-19.4,23.1-4.2-1.1-6.9-3.8-8.6-7.1-3.7-7.1-2.6-16.8-2.6-16.8,13.3-2.2,22.2-1.2,26.9-.3,2.5.5,3.7,1,3.7,1Z"/>
        <path class="st6" d="M727.1,50c-.4,14-5.9,26.5-19.4,23.1-4.2-1.1-6.9-3.8-8.6-7.1,3.2.4,7.4.6,12.4-.1,9.1-1.2,11.3-12.1,11.8-16.9,2.5.5,3.7,1,3.7,1h0Z"/>
      </g>
      <polygon class="st42" points="596.5 82.2 719.7 70.1 716.8 267.2 595.6 247.5 596.5 82.2"/>
      <polygon class="st38" points="719.7 70.1 751.7 79.1 751.7 256.8 716.8 267.2 719.7 70.1"/>
      <polygon class="st43" points="656.1 85.2 655 191.3 710.3 196.1 711.4 80 656.1 85.2"/>
      <polygon class="st43" points="647.4 85.2 644.9 191.3 602.1 187.8 603 88.9 647.4 85.2"/>
      <polygon class="st43" points="725.5 80.8 724.2 194.7 746.6 191.5 746.6 85.5 725.5 80.8"/>
      <polygon class="st3" points="620.8 87.4 620 182.2 602.1 187.8 603 88.9 620.8 87.4"/>
      <polygon class="st38" points="653.5 199.8 654.6 247.5 708.2 254.7 706.6 204.3 653.5 199.8"/>
      <polygon class="st38" points="603.4 194.7 644.4 198.7 644.4 245.4 603.4 238.2 603.4 194.7"/>
      <rect class="st50" x="603.5" y="111.8" width="5.2" height="23.8"/>
      <polygon class="st25" points="608.7 111.8 618.4 113.1 617.9 135.6 608.7 135.6 608.7 111.8"/>
      <rect class="st50" x="611" y="111.4" width="5.2" height="24.2"/>
      <polygon class="st25" points="616.2 111.4 625.9 112.8 625.3 135.6 616.2 135.6 616.2 111.4"/>
      <rect class="st50" x="620.8" y="111" width="5.2" height="24.7"/>
      <polygon class="st9" points="656.1 85.2 674.6 88.3 674.6 186.7 655 191.3 656.1 85.2"/>
      <polygon class="st25" points="626 111 635.7 112.3 635.2 135.6 626 135.6 626 111"/>
      <rect class="st50" x="631.9" y="111" width="5.2" height="24.7"/>
      <polygon class="st25" points="637.1 111 646.8 112.3 646.3 135.6 637.1 135.6 637.1 111"/>
      <polygon class="st28" points="602.1 138.2 646.2 138.2 646.3 134.8 602.6 134.8 602.1 138.2"/>
      <polygon class="st28" points="655 134.8 710.9 134.8 710.8 138.2 655.6 138.2 655 134.8"/>
      <rect class="st28" x="724.9" y="134.8" width="21.7" height="3"/>
      <polygon class="st5" points="620 182.2 645.1 184 644.9 191.3 602.1 187.8 620 182.2"/>
      <polygon class="st5" points="674.7 186.3 710.3 188.8 710.3 196.1 655 191.3 674.7 186.3"/>
      <polygon class="st5" points="724.2 190.1 746.6 191.5 724.2 194.7 724.2 190.1"/>
      <polygon class="st50" points="660.4 156.5 660.4 189.2 668.3 190.3 668.4 157.1 660.4 156.5"/>
      <polygon class="st25" points="668.4 157.2 683.3 156 682.8 189.1 668.3 190.3 668.4 157.2"/>
      <polygon class="st32" points="660.7 156.4 679.1 154.9 683.3 156 668.4 157.2 660.7 156.4"/>
      <path class="st34" d="M670.5,96.2s-2,1.2-1.7,2.9c.2,1.8,1.7,2.8,1.7,2.8,0,0-1.2,1-2.8,3.1-1.6,2.1,2.8,19.6,2.8,19.6,0,0-2,1-3.1,2.8-1.1,1.8-.4,7.5-.4,7.5h12.6s.8-6.2,0-7.7c-.8-1.5-4.3-2.5-4.3-2.5,0,0,1.9-17.7,1-19.8-.9-2.1-2.6-2.8-2.6-2.8,0,0,2-2.4,1.3-4.3s-3.5-2.4-4.5-1.5h0s0,0,0,0Z"/>
      <polygon class="st50" points="673 158.2 672.9 190.9 680.9 192 680.9 158.8 673 158.2"/>
      <polygon class="st25" points="680.9 159 695.8 157.8 695.3 190.8 680.9 192 680.9 159"/>
      <polygon class="st32" points="673.2 158.2 691.1 156.9 695.8 157.8 680.9 159 673.2 158.2"/>
      <ellipse class="st34" cx="696.4" cy="112.4" rx="13.2" ry="15"/>
      <path class="st34" d="M691.1,125l-2.8,9.8h2.8s1.1-4.8,4.5-5.7,7.6,5.7,7.6,5.7h3.6l-6-9.8h-9.7,0Z"/>
      <polygon class="st30" points="674.6 88.3 711.2 85.1 711.4 80 656.1 85.2 674.6 88.3"/>
      <polygon class="st30" points="725.4 85.2 746.6 85.5 725.5 80.8 725.4 85.2"/>
      <polygon class="st50" points="687.9 158.6 687.9 191.3 695.8 192.4 695.9 159.2 687.9 158.6"/>
      <polygon class="st25" points="695.9 159.4 710.8 158.2 710.3 191.2 695.8 192.4 695.9 159.4"/>
      <polygon class="st9" points="603 88.9 620.9 91.8 647.6 89.4 647.4 85.2 603 88.9"/>
      <polygon class="st32" points="688 158.6 710.7 156.6 710.8 158.2 695.9 159.4 688 158.6"/>
      <g>
        <polygon class="st8" points="611.8 164.9 611.8 186.1 623.2 187.9 622.8 165.1 611.8 164.9"/>
        <polygon class="st16" points="622.8 165.1 632.7 146.7 637.8 146.7 636.7 185.1 622.8 187.9 622.8 165.1"/>
        <polygon class="st23" points="611.6 165 623.9 146.7 632.7 146.7 620.9 165.1 611.6 165"/>
        <polygon class="st12" points="612.6 168.5 612.6 184.2 619.5 185.8 619.2 168.9 612.6 168.5"/>
        <polygon class="st13" points="612.5 164.9 612.4 149.9 624.5 149.9 614.3 165 612.5 164.9"/>
        <polygon class="st48" points="614.2 165 614 149.6 626.2 149.6 617.1 165 614.2 165"/>
        <polygon class="st18" points="617.1 165 616.1 149 628.2 149 620.4 165 617.1 165"/>
        <polygon class="st22" points="620.2 165.1 618.9 148 631.8 148.2 622.8 165.2 620.2 165.1"/>
        <path class="st39" d="M617,171.9c.2.9-.3,1.8-1,1.9-.7.1-1.5-.5-1.6-1.4-.2-.9.3-1.8,1-1.9.7-.1,1.5.5,1.6,1.4Z"/>
      </g>
    </g>
    <polygon class="st17" points="336 284.4 342.5 364.8 366.3 364.8 371.8 304.5 490.5 277.1 483.6 364.8 502.8 364.8 522 257 336 284.4"/>
    <polygon class="st45" points="366.3 277.5 366.3 292.1 540.2 253 540.2 241.5 366.3 277.5"/>
    <polygon class="st31" points="346.7 306.5 60.6 225.7 60.6 214.7 340.3 283.2 346.7 306.5"/>
    <polygon class="st35" points="50.8 205.1 51.3 211.7 366.3 292.1 366.3 277.5 50.8 205.1"/>
    <g>
      <polygon class="st42" points="169.5 178.6 570.3 226.3 375.6 265.8 17.7 184.8 169.5 178.6"/>
      <polygon class="st0" points="17.7 184.8 17.7 197.5 375.6 279.7 375.6 265.8 17.7 184.8"/>
      <polygon class="st38" points="570.3 226.3 569.3 239 374.7 279.7 374.7 265.8 570.3 226.3"/>
      <path class="st51" d="M26.9,187.9s86.5-3.5,149.5-.5c50.8,2.4,375,43,375,43l18.9-4.2-403.6-48.2-148.9,6.8,9.2,3.1h0s0,0,0,0Z"/>
    </g>
    <polygon class="st31" points="62.3 219.4 70.3 297.4 81.3 298.7 74.4 225.7 62.3 219.4"/>
    <polygon class="st12" points="174.9 201.6 252.3 215.8 229.9 229 156.3 212.1 174.9 201.6"/>
    <g>
      <g>
        <rect class="st1" x="127" y="284.1" width="13.3" height="53.4"/>
        <path class="st2" d="M120.6,289.3s3.7,8.2,4.6,15.8l17.5.2s1.5-10,5.2-13.6l-27.3-2.5s0,0,0,0Z"/>
        <path class="st45" d="M123.4,281.7s22.8,1.7,46-2.7c23.2-4.4,17.8-13.5,9.7-16.6s-17.4-4.8-33.6-6c-16.2-1.2-29.4,0-31.1,3.1-1.7,3.1,9.1,22.2,9.1,22.2h0Z"/>
        <path class="st35" d="M124,279.4s31.1,1.6,46.2-2.9c15.1-4.5,15.5-8.6,15.5-8.6,0,0,12.9,18.5-23.8,23.1-36.7,4.6-45.2,2.8-45.2,2.8l7.3-14.4h0Z"/>
        <path class="st45" d="M127.1,289.3c-.7,1.1-1.6,2-2.9,2.7-6.2,3.5-31.7,3.5-43.3-6.6-11.6-10-10-30.5-13.9-52.2-3.9-21.6-16.2-41.3-20.5-58s-5.2-29.4,0-37.1c1.6-2.4,3.7-4.7,8.3-6.3,4.6-1.5,23-.3,31.6,2.8,1.9.7,3.2,1.7,4.1,3,3.1,4.8,1.1,14.2,2,32.5,1.2,23.6,17.8,48.3,22.4,59.1,4.6,10.8.4,34.4,7.3,42.5,5.5,6.5,7.4,13.2,4.8,17.4h0Z"/>
        <path class="st19" d="M127.1,289.3c-20.1-.3-17-33.1-20.4-50.8-2.5-13.4-25.4-60.5-26.5-86.8-.7-16,5.5-16.2,10.4-14,3.1,4.8,1.1,14.2,2,32.5,1.2,23.6,17.8,48.3,22.4,59.1,4.6,10.8.4,34.4,7.3,42.5,5.5,6.5,7.4,13.2,4.8,17.4h0Z"/>
        <path class="st2" d="M117.7,293.7s6.5-38,5.8-45.2-2.8-11.6,4.8-14.9c7.6-3.3,39.8-2.9,48.1,1,8.3,3.9,7.3,9.1,4.4,12.8,0,0,2.1,34.4-2.2,39.4-4.3,5-6.5,2.5-6.5,2.5,0,0,4.4-36.9-2.7-41.2-7.1-4.3-33-1.4-34.2-.8-1.2.6-3.3,35.8-6,42s-9.2,6.5-11.6,4.4h0Z"/>
        <rect class="st2" x="125.6" y="315.1" width="16.4" height="34.4"/>
      </g>
      <polygon class="st2" points="99.4 349.5 127 342.4 142 342.4 169.8 349.5 99.4 349.5"/>
    </g>
    <path class="st43" d="M263.4,217.7c-5.2,1.5-17.9,7.9-16.7,14,1.2,6.1,27.9,1.1,33.8-2.9,6-4-1.9-15.4-17.1-11.1Z"/>
    <g>
      <path class="st40" d="M134.2,180.9s-6.9-19.3-.9-22.2c6-2.8,8.7,9,8.7,9,0,0,3.6-4.3,7.1-2.6,3.6,1.8-4.1,10.2-4.1,10.2v5.6h-10.8,0Z"/>
      <path class="st43" d="M127.5,179.1l3.3,17.2s6.8,2.5,19.6.8l2.7-19.5-25.5,1.4h0Z"/>
    </g>
    <polygon class="st31" points="490.5 277.1 508.2 273.6 490.5 364.8 483.6 364.8 490.5 277.1"/>
    <polygon class="st31" points="358.1 290 354 364.8 342.5 364.8 336 284.4 358.1 290"/>
    <g>
      <g>
        <polygon class="st10" points="201.6 173.8 322.4 186.2 322.4 105.9 201.6 107.3 201.6 173.8"/>
        <polygon class="st2" points="315.6 113.1 315.6 179.5 206.7 169.6 206.7 113.1 315.6 113.1"/>
        <path class="st6" d="M244.6,178.2s8.5,11.7,6.7,26.5l31.2,5.9s2.7-15.7-4.9-29l-33-3.4h0Z"/>
      </g>
      <path class="st26" d="M315.6,113.1v66.4c-30.1-51.2-108.9-66.4-108.9-66.4h108.9Z"/>
    </g>
    <g>
      <polygon class="st52" points="322.8 198.9 322.8 249.8 345.2 255 345.2 200.5 322.8 198.9"/>
      <polygon class="st21" points="345.2 200.5 373.2 155.2 385.3 155.2 382.8 247.2 345.2 255 345.2 200.5"/>
      <polygon class="st29" points="322.8 198.9 352.1 155.2 373.2 155.2 345.2 200.5 322.8 198.9"/>
      <polygon class="st15" points="325 207.4 325 245 341.5 248.8 340.8 208.5 325 207.4"/>
      <polygon class="st13" points="324.9 199.2 324.5 163 353.7 163 328.7 199.4 324.9 199.2"/>
      <polygon class="st48" points="328.7 199.4 328.4 162.1 357.5 162.1 334 199.7 328.7 199.4"/>
      <polygon class="st18" points="334 199.7 333.3 160.6 362.5 160.6 340.1 200.1 334 199.7"/>
      <polygon class="st22" points="340.1 200.1 340.1 158.2 371 158.7 345.2 200.5 340.1 200.1"/>
      <path class="st20" d="M335.5,215.5c.4,2.2-.7,4.2-2.4,4.5-1.7.3-3.5-1.2-3.9-3.3s.7-4.2,2.4-4.5c1.7-.3,3.5,1.2,3.9,3.3Z"/>
    </g>
    <g>
      <polygon class="st27" points="358.1 232.7 374.4 234.5 374.2 258.6 358.2 257.5 358.1 232.7"/>
      <polygon class="st50" points="374.4 234.5 426.3 228.7 426.3 248.5 374.2 258.6 374.4 234.5"/>
      <polygon class="st44" points="358.1 232.7 409.3 227.8 426.3 228.7 374.4 234.5 358.1 232.7"/>
      <polygon class="st46" points="363.2 201.4 363.2 233.3 371 234.1 370.3 202.6 363.2 201.4"/>
      <polygon class="st24" points="393.2 200.3 394.3 232.3 374.4 234.5 371 234.1 370.3 202.6 393.2 200.3"/>
      <polygon class="st33" points="374.4 208.9 390.8 207 390.8 213.7 374.4 216.1 374.4 208.9"/>
      <polygon class="st33" points="363.2 201.4 383.5 199.4 393.2 200.3 370.3 202.6 363.2 201.4"/>
      <polygon class="st27" points="377.6 240.2 423.8 234.1 423.8 235.7 377.6 242.2 377.6 240.2"/>
    </g>
  </g>
</svg>